<svg version="1.1" class="giffits-logo_svg" xmlns="http://www.w3.org/2000/svg" xmlns:xlink="http://www.w3.org/1999/xlink" x="0px" y="0px" viewBox="0 0 397 165" style="enable-background:new 0 0 397 165;" xml:space="preserve">
<style type="text/css">
	.giffits-logo_svg_st0{fill:#64ABEA;}
	.giffits-logo_svg_st1{fill:#BDBAB9;}
</style>
<g>
	<path class="giffits-logo_svg_st0" d="M91.6,120.3c0,13.9-3.9,24.8-11.7,32.8s-18.5,12-32.1,12c-4.1,0-8.4-0.4-12.9-1.2c-4.4-0.8-9.1-2-14.1-3.7
		l3.3-14.6c5.1,1.7,9.6,2.9,13.5,3.7s7.4,1.2,10.5,1.2c8.7,0,15.6-2.6,20.6-7.6c5-5.1,7.5-12.1,7.5-21v-39c0-8.9-2.5-16.2-7.6-21.7
		S57,52.9,48.9,52.9c-8,0-14.6,2.7-19.8,8.2s-7.7,12.5-7.7,21.2c0,8.8,2.6,16,7.9,21.7c5.3,5.6,12,8.4,20.2,8.4
		c3.7,0,7.3-0.6,10.9-1.9c3.5-1.3,7-3.2,10.6-5.9V121c-3.5,2-7.2,3.5-11,4.4c-3.9,1-7.9,1.4-12.2,1.4c-4.1,0-8.1-0.6-12.1-1.9
		c-4-1.2-7.6-3-10.9-5.3c-6.2-4.2-10.9-9.5-14.1-15.9c-3.3-6.4-4.9-13.4-4.9-21.2c0-12.8,4-23.3,12.1-31.6s18.3-12.5,30.8-12.5
		c8.2,0,15.7,2.1,22.5,6.2s12,9.8,15.7,17c1.7,3.2,2.9,6.8,3.6,10.7s1.1,9.6,1.1,17.3C91.6,89.6,91.6,120.3,91.6,120.3z"></path>
	<path class="giffits-logo_svg_st0" d="M105.5,19.5c0-2.6,0.9-4.7,2.7-6.5c1.8-1.8,4-2.7,6.6-2.7s4.8,0.9,6.6,2.6c1.8,1.8,2.7,4,2.7,6.6
		c0,2.7-0.9,4.9-2.7,6.7c-1.8,1.8-4,2.7-6.6,2.7s-4.7-0.9-6.6-2.8C106.4,24.3,105.5,22.1,105.5,19.5z M107.2,125.3V39.9h15.4v85.4
		H107.2z"></path>
	<path class="giffits-logo_svg_st1" d="M180,125.3V32.4c0-10.7-3-18.7-9-24s-15-8-27.1-8h-9.2v14.7h8.9c7.4,0,12.7,1.6,16.1,4.8
		c3.4,3.2,5.1,8.2,5.1,15.1v4.8h-30.1v14.5h30.1v70.9H180V125.3z"></path>
	<path class="giffits-logo_svg_st0" d="M193.1,125.3V32.4c0-10.7,3-18.7,9-24s15-8,27.1-8h9.2v14.7h-8.9c-7.4,0-12.7,1.6-16.1,4.8
		c-3.4,3.2-5.1,8.2-5.1,15.1v4.8h30.1v14.5h-30.1v70.9h-15.2V125.3z"></path>
	<path class="giffits-logo_svg_st0" d="M247,19.5c0-2.6,0.9-4.7,2.7-6.5s4-2.7,6.6-2.7c2.6,0,4.8,0.9,6.6,2.6c1.8,1.8,2.7,4,2.7,6.6
		c0,2.7-0.9,4.9-2.7,6.7c-1.8,1.8-3.9,2.7-6.6,2.7c-2.6,0-4.7-0.9-6.6-2.8C247.9,24.3,247,22.1,247,19.5z M248.8,125.3V39.9h15.4
		v85.4H248.8z"></path>
	<path class="giffits-logo_svg_st0" d="M279.4,17.2h15.4v22.7h25.9v14.5h-25.9v36.5c0,6.8,1.7,11.8,5,15c3.4,3.2,8.7,4.7,16,4.7h4.9v14.7h-5.1
		c-12.1,0-21.2-2.6-27.2-7.9s-9-13.2-9-23.9L279.4,17.2L279.4,17.2z"></path>
	<path class="giffits-logo_svg_st0" d="M326,110.6h36.9c3.7,0,6.6-0.7,8.7-2.2c2.1-1.4,3.2-3.4,3.2-6c0-2.1-0.8-4-2.4-5.5s-4.6-3.2-9-5L348.9,86
		c-8.6-3.5-14.5-7-17.8-10.7c-3.3-3.6-4.9-8.3-4.9-13.9c0-7,2.5-12.3,7.4-16s12-5.6,21.3-5.6h31.5v14.4h-35.6
		c-2.9,0-5.1,0.6-6.8,1.9c-1.6,1.3-2.4,3.1-2.4,5.4c0,1.7,0.7,3.3,2.2,4.7c1.4,1.4,3.8,2.8,7.2,4.2l15.3,6.3
		c9.6,3.9,16,7.7,19.4,11.4c3.3,3.7,5,8.3,5,13.9c0,7.9-2.9,13.8-8.8,17.6c-5.9,3.8-14.9,5.7-27.1,5.7H326V110.6z"></path>
</g>
</svg>
